{"title":"Rock of Ages-720p MP4 AAC x264 BRRip 2012-CC","uid":7691839,"size":3246658137,"categoryP":"video","categoryS":"hd___movies","magnet":"?xt=urn:btih:39da383027b1c2f3bdb0708e4f88a5c7ad9639dd&amp;dn=Rock+of+Ages-720p+MP4+AAC+x264+BRRip+2012-CC&amp;tr=udp%3A%2F%2Ftracker.openbittorrent.com%3A80&amp;tr=udp%3A%2F%2Fopen.demonii.com%3A1337&amp;tr=udp%3A%2F%2Ftracker.coppersurfer.tk%3A6969&amp;tr=udp%3A%2F%2Fexodus.desync.com%3A6969","seeders":0,"leechers":1,"uploader":"Caveman44","files":-1,"time":1349224132,"description":" &lt;a href=&quot;http://www.imdb.com/title/tt1336608/&quot; rel=&quot;nofollow&quot; target=&quot;_NEW&quot;&gt;http://www.imdb.com/title/tt1336608/&lt;/a&gt;\n\nSource: Rock.Of.Ages.2012.EXTENDED.720p.BluRay.X264-BLOW Thanks!\n\nSubs: Arabic, Brazilian, Dutch, English, French, Portuguese and Spanish.\n\nSample and Screens included.\n\nGeneral\nComplete name                            : Rock of Ages-720p MP4 AAC x264 BRRip 2012-CC.mp4\nFormat                                   : MPEG-4\nFormat profile                           : Base Media\nCodec ID                                 : isom\nFile size                                : 2.99 GiB\nDuration                                 : 2h 16mn\nOverall bit rate mode                    : Variable\nOverall bit rate                         : 3 143 Kbps\nEncoded date                             : UTC 2012-09-30 14:44:04\n\nVideo\nID                                       : 1\nFormat                                   : AVC\nFormat/Info                              : Advanced Video Codec\nFormat profile                           : &lt;a class=&quot;__cf_email__&quot; href=&quot;/cdn-cgi/l/email-protection&quot; data-cfemail=&quot;afe7c6c8c7efe39c819e&quot;&gt;[email&amp;#160;protected]&lt;/a&gt;&lt;script cf-hash='f9e31' type=&quot;text/javascript&quot;&gt;\n/* &lt;![CDATA[ */!function(){try{var t=&quot;currentScript&quot;in document?document.currentScript:function(){for(var t=document.getElementsByTagName(&quot;script&quot;),e=t.length;e--;)if(t[e].getAttribute(&quot;cf-hash&quot;))return t[e]}();if(t&amp;&amp;t.previousSibling){var e,r,n,i,c=t.previousSibling,a=c.getAttribute(&quot;data-cfemail&quot;);if(a){for(e=&quot;&quot;,r=parseInt(a.substr(0,2),16),n=2;a.length-n;n+=2)i=parseInt(a.substr(n,2),16)^r,e+=String.fromCharCode(i);e=document.createTextNode(e),c.parentNode.replaceChild(e,c)}}}catch(u){}}();/* ]]&gt; */&lt;/script&gt;\nFormat settings, CABAC                   : Yes\nFormat settings, ReFrames                : 5 frames\nCodec ID                                 : avc1\nCodec ID/Info                            : Advanced Video Coding\nDuration                                 : 2h 16mn\nBit rate                                 : 2 783 Kbps\nMaximum bit rate                         : 20.2 Mbps\nWidth                                    : 1 280 pixels\nHeight                                   : 528 pixels\nDisplay aspect ratio                     : 2.40:1\nFrame rate mode                          : Variable\nFrame rate                               : 23.976 fps\nMinimum frame rate                       : 19.048 fps\nMaximum frame rate                       : 24.390 fps\nColor space                              : YUV\nChroma subsampling                       : 4:2:0\nBit depth                                : 8 bits\nScan type                                : Progressive\nBits/(Pixel*Frame)                       : 0.172\nStream size                              : 2.62 GiB (88%)\nWriting library                          : x264 core 112\n\nAudio\nID                                       : 2\nFormat                                   : AAC\nFormat/Info                              : Advanced Audio Codec\nFormat profile                           : LC\nCodec ID                                 : 40\nDuration                                 : 2h 16mn\nBit rate mode                            : Variable\nBit rate                                 : 384 Kbps\nMaximum bit rate                         : 724 Kbps\nChannel(s)                               : 6 channels\nChannel positions                        : Front: L C R, Side: L R, LFE\nSampling rate                            : 48.0 KHz\nCompression mode                         : Lossy\nDelay relative to video                  : 83ms\nStream size                              : 374 MiB (12%)\nLanguage                                 : English\n\nEnjoy...","torrent":{"xt":"urn:btih:39da383027b1c2f3bdb0708e4f88a5c7ad9639dd","amp;dn":"Rock+of+Ages-720p+MP4+AAC+x264+BRRip+2012-CC","amp;tr":["udp%3A%2F%2Ftracker.openbittorrent.com%3A80","udp%3A%2F%2Fopen.demonii.com%3A1337","udp%3A%2F%2Ftracker.coppersurfer.tk%3A6969","udp%3A%2F%2Fexodus.desync.com%3A6969"],"infoHash":"39da383027b1c2f3bdb0708e4f88a5c7ad9639dd","infoHashBuffer":{"type":"Buffer","data":[57,218,56,48,39,177,194,243,189,176,112,142,79,136,165,199,173,150,57,221]},"announce":[],"urlList":[]}}